<svg xmlns="http://www.w3.org/2000/svg" width="1200" height="630" viewBox="0 0 1200 630" role="img" aria-labelledby="title desc">
  <title id="title">NEAIST preview image</title>
  <desc id="desc">Preview image for the NEAIST website.</desc>
  <defs>
    <linearGradient id="bg" x1="0%" y1="0%" x2="100%" y2="100%">
      <stop offset="0%" stop-color="#0b1117"/>
      <stop offset="55%" stop-color="#12324a"/>
      <stop offset="100%" stop-color="#1b9fe0"/>
    </linearGradient>
    <linearGradient id="accent" x1="0%" y1="0%" x2="100%" y2="0%">
      <stop offset="0%" stop-color="#1b9fe0"/>
      <stop offset="70%" stop-color="#1b9fe0"/>
      <stop offset="100%" stop-color="#f2a93b"/>
    </linearGradient>
  </defs>
  <rect width="1200" height="630" fill="url(#bg)"/>
  <circle cx="1030" cy="120" r="150" fill="rgba(255,255,255,0.08)"/>
  <circle cx="150" cy="520" r="180" fill="rgba(255,255,255,0.06)"/>
  <rect x="86" y="96" width="190" height="190" rx="95" fill="#ffffff" opacity="0.94"/>
  <circle cx="181" cy="191" r="78" fill="none" stroke="#1b9fe0" stroke-width="8"/>
  <circle cx="181" cy="191" r="48" fill="#0b1117"/>
  <path d="M166 150c18 5 38 16 50 36 9 16 8 37-3 52-10 13-29 20-46 19-16-2-31-11-39-25-11-17-11-41 1-57 9-12 22-20 37-25z" fill="#ffffff"/>
  <text x="332" y="178" fill="#ffffff" font-family="Inter, Arial, sans-serif" font-size="78" font-weight="800" letter-spacing="2">NEAIST</text>
  <text x="332" y="248" fill="#cbe7f5" font-family="Inter, Arial, sans-serif" font-size="34" font-weight="600">Núcleo de Estudantes Africanos do</text>
  <text x="332" y="292" fill="#cbe7f5" font-family="Inter, Arial, sans-serif" font-size="34" font-weight="600">Instituto Superior Técnico</text>
  <text x="92" y="404" fill="#ffffff" font-family="Poppins, Arial, sans-serif" font-size="56" font-weight="700">Comunidade, integração, cultura</text>
  <text x="92" y="468" fill="#ffffff" font-family="Poppins, Arial, sans-serif" font-size="56" font-weight="700">e apoio académico no Técnico</text>
  <text x="92" y="546" fill="#d8edf8" font-family="Inter, Arial, sans-serif" font-size="28" font-weight="500">African Students Association at Instituto Superior Técnico</text>
  <rect x="92" y="576" width="320" height="14" rx="7" fill="url(#accent)" opacity="0.9"/>
</svg>
